<svg id="圖層_1" data-name="圖層 1" xmlns="http://www.w3.org/2000/svg" width="485.69" height="144.83" viewBox="0 0 485.69 144.83"><title>外站_純黑小LOGO</title><polygon points="318.34 110.22 318.34 100.96 325.5 100.96 325.5 95.46 318.34 95.46 318.34 81.64 333.52 78.9 333.52 73.18 312.84 77.46 312.84 115.45 333.52 115.45 333.52 110.22 318.34 110.22"/><polygon points="361.16 73.55 361.16 100.27 345.96 75.11 341.33 76.37 341.33 114.37 346.71 116.54 346.71 87.92 366.54 117.54 366.54 71.89 361.16 73.55"/><polygon points="152.93 36.61 152.93 46.85 144.43 36.61 140.23 36.61 140.23 56.15 144.79 58.17 144.79 44.97 157.49 58.91 157.49 36.61 152.93 36.61"/><polygon points="244.51 110.29 235.03 86.43 227.77 104.22 233.17 100.96 235.19 100.96 237.09 105.27 234.49 105.27 217.54 115.64 234.66 71.5 252.84 115.6 244.51 110.29"/><polygon points="279.81 115.58 259.82 115.58 257.38 108.06 257.38 74.68 262.89 74.68 262.89 107.19 262.9 110.07 278.14 110.07 279.81 115.58"/><polygon points="306.64 115.58 286.58 115.58 284.76 109.93 284.76 74.68 290.26 74.68 290.26 110.07 306.64 110.07 306.64 115.58"/><polygon points="211.7 113.79 211.7 74.78 206.19 74.78 206.19 84.64 203.9 84.64 191.51 94.83 191.4 94.83 191.4 74.78 185.9 74.78 185.9 117.36 191.4 114.36 191.4 100.33 193.84 100.33 206.23 90.14 206.19 90.14 206.19 116.58 211.7 113.79"/><polygon points="183.09 36.62 170.36 36.62 170.36 41.18 174.54 41.18 174.44 56.47 179.01 58.95 179.11 41.18 183.09 41.18 183.09 36.62"/><polygon points="427.72 100.96 435.11 100.96 435.11 95.11 427.72 95.11 427.72 79.01 443.19 75.78 443.19 70.09 421.87 75.02 421.87 114.25 444.3 116.81 444.3 111.34 427.72 109.54 427.72 100.96"/><path d="M414.61,114.66l-.09-14.33-11.74-4.68-2,5.05,6.71,2.68a15.36,15.36,0,0,1-12.72,6.76,15.91,15.91,0,0,1,0-31.82A14.61,14.61,0,0,1,405,82.08l5.63-1.82a20.75,20.75,0,0,0-15.85-7.39,21.35,21.35,0,0,0,0,42.7,20.7,20.7,0,0,0,14.39-5.79l0,4.91Z"/><path d="M207.73,36.65v13.3c0,2.52-1.78,4.57-4,4.57s-4-2-4-4.57V36.65h-4.56v13.3a9.53,9.53,0,0,0,1.42,5l8.73,3.93a9,9,0,0,0,6.91-9V36.65Z"/><path d="M175.57,101a16.16,16.16,0,0,1-13,10.56A16.7,16.7,0,0,1,158,78.45a16,16,0,0,1,8.67,1.24l5.84-3.24a21.7,21.7,0,0,0-15.28-3.65,22.4,22.4,0,0,0,6.06,44.38A21.88,21.88,0,0,0,181.54,101Z"/><path d="M121.85,53.11l-7.18-27L91.74,42.3,84.86,60.57,73,51.22a16,16,0,0,0-25.31,7.12L33.39,98.85a15.83,15.83,0,1,0,29.76,10.76l7.15-19.79L81.92,99A16,16,0,0,0,107.17,92Z"/></svg>