<?xml version="1.0" encoding="utf-8"?>
<!-- Generator: Adobe Illustrator 20.1.0, SVG Export Plug-In . SVG Version: 6.00 Build 0)  -->
<svg version="1.1" id="Layer_1" xmlns="http://www.w3.org/2000/svg" xmlns:xlink="http://www.w3.org/1999/xlink" x="0px" y="0px"
	 viewBox="0 0 4252 4252" style="enable-background:new 0 0 4252 4252;" xml:space="preserve">
<style type="text/css">
	.st0{fill:#AEAEAE;}
	.st1{fill:#ADADAD;}
	.st2{fill:#ACACAC;}
	.st3{fill:#ABABAB;}
	.st4{fill:#AAAAAA;}
	.st5{fill:#A9A9A9;}
	.st6{fill:#A8A8A8;}
	.st7{fill:#A7A7A7;}
	.st8{fill:#A6A6A6;}
	.st9{fill:#A5A5A5;}
	.st10{fill:#A4A4A4;}
	.st11{fill:#A3A3A3;}
	.st12{fill:#A2A2A2;}
	.st13{fill:#A1A1A1;}
	.st14{fill:#A0A0A0;}
	.st15{fill:#9F9F9F;}
	.st16{fill:#9E9E9E;}
	.st17{fill:#9D9D9D;}
	.st18{fill:#9C9C9C;}
	.st19{fill:#9B9B9B;}
	.st20{fill:#9A9A9A;}
	.st21{fill:#999999;}
	.st22{fill:#989898;}
	.st23{fill:#979797;}
	.st24{fill:#969696;}
	.st25{fill:#959595;}
	.st26{fill:#949494;}
	.st27{fill:#939393;}
	.st28{fill:#929292;}
	.st29{fill:#919191;}
	.st30{fill:#909090;}
	.st31{fill:#8F8F8F;}
	.st32{fill:#8E8E8E;}
	.st33{fill:#8D8D8D;}
	.st34{fill:#8C8C8C;}
	.st35{fill:#8B8B8B;}
	.st36{fill:#8A8A8A;}
	.st37{fill:#898989;}
	.st38{fill:#888888;}
	.st39{fill:#878787;}
	.st40{fill:#868686;}
	.st41{fill:#858585;}
	.st42{fill:#848484;}
	.st43{fill:#838383;}
	.st44{fill:#828282;}
	.st45{fill:#818181;}
	.st46{fill:#808080;}
	.st47{fill:#7F7F7F;}
	.st48{fill:#7E7E7E;}
	.st49{fill:#7D7D7D;}
	.st50{fill:#7C7C7C;}
	.st51{fill:#7B7B7B;}
	.st52{fill:#7A7A7A;}
	.st53{fill:#797979;}
	.st54{fill:#787878;}
	.st55{fill:#777777;}
	.st56{fill:#767676;}
	.st57{fill:#757575;}
	.st58{fill:#747474;}
	.st59{fill:#737373;}
	.st60{fill:#727272;}
	.st61{fill:#717171;}
	.st62{fill:#707070;}
	.st63{fill:#6F6F6F;}
	.st64{fill:#6E6E6E;}
	.st65{fill:#6D6D6D;}
	.st66{fill:#6C6C6C;}
	.st67{fill:#6B6B6B;}
	.st68{fill:#6A6A6A;}
	.st69{fill:#696969;}
	.st70{fill:#686868;}
	.st71{fill:#676767;}
	.st72{fill:#666666;}
	.st73{fill:#656565;}
	.st74{fill:#646464;}
	.st75{fill:#636363;}
	.st76{fill:#626262;}
	.st77{fill:#616161;}
	.st78{fill:#606060;}
	.st79{fill:#5F5F5F;}
	.st80{fill:#5E5E5E;}
	.st81{fill:#5D5D5D;}
	.st82{fill:#5C5C5C;}
	.st83{fill:#5B5B5B;}
	.st84{fill:#5A5A5A;}
	.st85{fill:#595959;}
	.st86{fill:#585858;}
	.st87{fill:#575757;}
	.st88{fill:#565656;}
	.st89{fill:#555555;}
	.st90{fill:#545454;}
	.st91{fill:#535353;}
	.st92{fill:#525252;}
	.st93{fill:#515151;}
	.st94{fill:#505050;}
	.st95{fill:#4F4F4F;}
	.st96{fill:#4E4E4E;}
	.st97{fill:#4D4D4D;}
	.st98{fill:#4C4C4C;}
	.st99{fill:#4B4B4B;}
	.st100{fill:#4A4A4A;}
	.st101{fill:#494949;}
	.st102{fill:#484848;}
	.st103{fill:#474747;}
	.st104{fill:#464646;}
	.st105{fill:#454545;}
	.st106{fill:#444444;}
	.st107{fill:#434343;}
	.st108{fill:#424242;}
	.st109{fill:#414141;}
	.st110{fill:#404040;}
	.st111{fill:#3F3F3F;}
	.st112{fill:#3E3E3E;}
	.st113{fill:#3D3D3D;}
	.st114{fill:#3C3C3C;}
	.st115{fill:#3B3B3B;}
	.st116{fill:#3A3A3A;}
	.st117{fill:#393939;}
	.st118{fill:#383838;}
	.st119{fill:#373737;}
	.st120{fill:#363636;}
	.st121{fill:#353535;}
	.st122{fill:#343434;}
	.st123{fill:#333333;}
	.st124{fill:#323232;}
	.st125{fill:#313131;}
	.st126{fill:#303030;}
	.st127{fill:#2F2F2F;}
	.st128{fill:#2E2E2E;}
	.st129{fill:#2D2D2D;}
	.st130{fill:#2C2C2C;}
	.st131{fill:#2B2B2B;}
	.st132{fill:#2A2A2A;}
	.st133{fill:#292929;}
	.st134{fill:#282828;}
	.st135{fill:#272727;}
	.st136{fill:#262626;}
	.st137{fill:#252525;}
	.st138{fill:#242424;}
	.st139{fill:#232323;}
	.st140{fill:#222222;}
	.st141{fill:#212121;}
	.st142{fill:#202020;}
	.st143{fill:#1F1F1F;}
	.st144{fill:#1E1E1E;}
	.st145{fill:#1D1D1D;}
	.st146{fill:#1C1C1C;}
	.st147{fill:#1B1B1B;}
	.st148{fill:#1A1A1A;}
</style>
<g>
	<circle class="st0" cx="1512.2" cy="2126" r="1287.3"/>
	<circle class="st1" cx="1520.5" cy="2126" r="1287.3"/>
	<circle class="st2" cx="1528.8" cy="2126" r="1287.3"/>
	<circle class="st3" cx="1537.1" cy="2126" r="1287.3"/>
	<circle class="st4" cx="1545.4" cy="2126" r="1287.3"/>
	<circle class="st5" cx="1553.6" cy="2126" r="1287.3"/>
	<circle class="st6" cx="1561.9" cy="2126" r="1287.3"/>
	<circle class="st7" cx="1570.2" cy="2126" r="1287.3"/>
	<circle class="st8" cx="1578.5" cy="2126" r="1287.3"/>
	<circle class="st9" cx="1586.8" cy="2126" r="1287.3"/>
	<circle class="st10" cx="1595.1" cy="2126" r="1287.3"/>
	<circle class="st11" cx="1603.4" cy="2126" r="1287.3"/>
	<circle class="st12" cx="1611.7" cy="2126" r="1287.3"/>
	<circle class="st13" cx="1620" cy="2126" r="1287.3"/>
	<circle class="st14" cx="1628.3" cy="2126" r="1287.3"/>
	<circle class="st15" cx="1636.6" cy="2126" r="1287.3"/>
	<circle class="st16" cx="1644.9" cy="2126" r="1287.3"/>
	<circle class="st17" cx="1653.2" cy="2126" r="1287.3"/>
	<circle class="st18" cx="1661.5" cy="2126" r="1287.3"/>
	<circle class="st19" cx="1669.8" cy="2126" r="1287.3"/>
	<circle class="st20" cx="1678.1" cy="2126" r="1287.3"/>
	<circle class="st21" cx="1686.4" cy="2126" r="1287.3"/>
	<circle class="st22" cx="1694.7" cy="2126" r="1287.3"/>
	<circle class="st23" cx="1703" cy="2126" r="1287.3"/>
	<circle class="st24" cx="1711.2" cy="2126" r="1287.3"/>
	<circle class="st25" cx="1719.5" cy="2126" r="1287.3"/>
	<circle class="st26" cx="1727.8" cy="2126" r="1287.3"/>
	<circle class="st27" cx="1736.1" cy="2126" r="1287.3"/>
	<circle class="st28" cx="1744.4" cy="2126" r="1287.3"/>
	<circle class="st29" cx="1752.7" cy="2126" r="1287.3"/>
	<circle class="st30" cx="1761" cy="2126" r="1287.3"/>
	<circle class="st31" cx="1769.3" cy="2126" r="1287.3"/>
	<circle class="st32" cx="1777.6" cy="2126" r="1287.3"/>
	<circle class="st33" cx="1785.9" cy="2126" r="1287.3"/>
	<circle class="st34" cx="1794.2" cy="2126" r="1287.3"/>
	<circle class="st35" cx="1802.5" cy="2126" r="1287.3"/>
	<circle class="st36" cx="1810.8" cy="2126" r="1287.3"/>
	<circle class="st37" cx="1819.1" cy="2126" r="1287.3"/>
	<circle class="st38" cx="1827.4" cy="2126" r="1287.3"/>
	<circle class="st39" cx="1835.7" cy="2126" r="1287.3"/>
	<circle class="st40" cx="1844" cy="2126" r="1287.3"/>
	<circle class="st41" cx="1852.3" cy="2126" r="1287.3"/>
	<circle class="st42" cx="1860.6" cy="2126" r="1287.3"/>
	<circle class="st43" cx="1868.8" cy="2126" r="1287.3"/>
	<circle class="st44" cx="1877.1" cy="2126" r="1287.3"/>
	<circle class="st45" cx="1885.4" cy="2126" r="1287.3"/>
	<circle class="st46" cx="1893.7" cy="2126" r="1287.3"/>
	<circle class="st47" cx="1902" cy="2126" r="1287.3"/>
	<circle class="st48" cx="1910.3" cy="2126" r="1287.3"/>
	<circle class="st49" cx="1918.6" cy="2126" r="1287.3"/>
	<circle class="st50" cx="1926.9" cy="2126" r="1287.3"/>
	<circle class="st51" cx="1935.2" cy="2126" r="1287.3"/>
	<circle class="st52" cx="1943.5" cy="2126" r="1287.3"/>
	<circle class="st53" cx="1951.8" cy="2126" r="1287.3"/>
	<circle class="st54" cx="1960.1" cy="2126" r="1287.3"/>
	<circle class="st55" cx="1968.4" cy="2126" r="1287.3"/>
	<circle class="st56" cx="1976.7" cy="2126" r="1287.3"/>
	<circle class="st57" cx="1985" cy="2126" r="1287.3"/>
	<circle class="st58" cx="1993.3" cy="2126" r="1287.3"/>
	<circle class="st59" cx="2001.6" cy="2126" r="1287.3"/>
	<circle class="st60" cx="2009.9" cy="2126" r="1287.3"/>
	<circle class="st61" cx="2018.2" cy="2126" r="1287.3"/>
	<circle class="st62" cx="2026.4" cy="2126" r="1287.3"/>
	<circle class="st63" cx="2034.7" cy="2126" r="1287.3"/>
	<circle class="st64" cx="2043" cy="2126" r="1287.3"/>
	<circle class="st65" cx="2051.3" cy="2126" r="1287.3"/>
	<circle class="st66" cx="2059.6" cy="2126" r="1287.3"/>
	<circle class="st67" cx="2067.9" cy="2126" r="1287.3"/>
	<circle class="st68" cx="2076.2" cy="2126" r="1287.3"/>
	<circle class="st69" cx="2084.5" cy="2126" r="1287.3"/>
	<circle class="st70" cx="2092.8" cy="2126" r="1287.3"/>
	<circle class="st71" cx="2101.1" cy="2126" r="1287.3"/>
	<circle class="st72" cx="2109.4" cy="2126" r="1287.3"/>
	<circle class="st73" cx="2117.7" cy="2126" r="1287.3"/>
	<circle class="st74" cx="2126" cy="2126" r="1287.3"/>
	<circle class="st75" cx="2134.3" cy="2126" r="1287.3"/>
	<circle class="st76" cx="2142.6" cy="2126" r="1287.3"/>
	<circle class="st77" cx="2150.9" cy="2126" r="1287.3"/>
	<circle class="st78" cx="2159.2" cy="2126" r="1287.3"/>
	<circle class="st79" cx="2167.5" cy="2126" r="1287.3"/>
	<circle class="st80" cx="2175.8" cy="2126" r="1287.3"/>
	<circle class="st81" cx="2184" cy="2126" r="1287.3"/>
	<circle class="st82" cx="2192.3" cy="2126" r="1287.3"/>
	<circle class="st83" cx="2200.6" cy="2126" r="1287.3"/>
	<circle class="st84" cx="2208.9" cy="2126" r="1287.3"/>
	<circle class="st85" cx="2217.2" cy="2126" r="1287.3"/>
	<circle class="st86" cx="2225.5" cy="2126" r="1287.3"/>
	<circle class="st87" cx="2233.8" cy="2126" r="1287.3"/>
	<circle class="st88" cx="2242.1" cy="2126" r="1287.3"/>
	<circle class="st89" cx="2250.4" cy="2126" r="1287.3"/>
	<circle class="st90" cx="2258.7" cy="2126" r="1287.3"/>
	<circle class="st91" cx="2267" cy="2126" r="1287.3"/>
	<circle class="st92" cx="2275.3" cy="2126" r="1287.3"/>
	<circle class="st93" cx="2283.6" cy="2126" r="1287.3"/>
	<circle class="st94" cx="2291.9" cy="2126" r="1287.3"/>
	<circle class="st95" cx="2300.2" cy="2126" r="1287.3"/>
	<circle class="st96" cx="2308.5" cy="2126" r="1287.3"/>
	<circle class="st97" cx="2316.8" cy="2126" r="1287.3"/>
	<circle class="st98" cx="2325.1" cy="2126" r="1287.3"/>
	<circle class="st99" cx="2333.4" cy="2126" r="1287.3"/>
	<circle class="st100" cx="2341.6" cy="2126" r="1287.3"/>
	<circle class="st101" cx="2349.9" cy="2126" r="1287.3"/>
	<circle class="st102" cx="2358.2" cy="2126" r="1287.3"/>
	<circle class="st103" cx="2366.5" cy="2126" r="1287.3"/>
	<circle class="st104" cx="2374.8" cy="2126" r="1287.3"/>
	<circle class="st105" cx="2383.1" cy="2126" r="1287.3"/>
	<circle class="st106" cx="2391.4" cy="2126" r="1287.3"/>
	<circle class="st107" cx="2399.7" cy="2126" r="1287.3"/>
	<circle class="st108" cx="2408" cy="2126" r="1287.3"/>
	<circle class="st109" cx="2416.3" cy="2126" r="1287.3"/>
	<circle class="st110" cx="2424.6" cy="2126" r="1287.3"/>
	<circle class="st111" cx="2432.9" cy="2126" r="1287.3"/>
	<circle class="st112" cx="2441.2" cy="2126" r="1287.3"/>
	<circle class="st113" cx="2449.5" cy="2126" r="1287.3"/>
	<circle class="st114" cx="2457.8" cy="2126" r="1287.3"/>
	<circle class="st115" cx="2466.1" cy="2126" r="1287.3"/>
	<circle class="st116" cx="2474.4" cy="2126" r="1287.3"/>
	<circle class="st117" cx="2482.7" cy="2126" r="1287.3"/>
	<circle class="st118" cx="2491" cy="2126" r="1287.3"/>
	<circle class="st119" cx="2499.2" cy="2126" r="1287.3"/>
	<circle class="st120" cx="2507.5" cy="2126" r="1287.3"/>
	<circle class="st121" cx="2515.8" cy="2126" r="1287.3"/>
	<circle class="st122" cx="2524.1" cy="2126" r="1287.3"/>
	<circle class="st123" cx="2532.4" cy="2126" r="1287.3"/>
	<circle class="st124" cx="2540.7" cy="2126" r="1287.3"/>
	<circle class="st125" cx="2549" cy="2126" r="1287.3"/>
	<circle class="st126" cx="2557.3" cy="2126" r="1287.3"/>
	<circle class="st127" cx="2565.6" cy="2126" r="1287.3"/>
	<circle class="st128" cx="2573.9" cy="2126" r="1287.3"/>
	<circle class="st129" cx="2582.2" cy="2126" r="1287.3"/>
	<circle class="st130" cx="2590.5" cy="2126" r="1287.3"/>
	<circle class="st131" cx="2598.8" cy="2126" r="1287.3"/>
	<circle class="st132" cx="2607.1" cy="2126" r="1287.3"/>
	<circle class="st133" cx="2615.4" cy="2126" r="1287.3"/>
	<circle class="st134" cx="2623.7" cy="2126" r="1287.3"/>
	<circle class="st135" cx="2632" cy="2126" r="1287.3"/>
	<circle class="st136" cx="2640.3" cy="2126" r="1287.3"/>
	<circle class="st137" cx="2648.6" cy="2126" r="1287.3"/>
	<circle class="st138" cx="2656.8" cy="2126" r="1287.3"/>
	<circle class="st139" cx="2665.1" cy="2126" r="1287.3"/>
	<circle class="st140" cx="2673.4" cy="2126" r="1287.3"/>
	<circle class="st141" cx="2681.7" cy="2126" r="1287.3"/>
	<circle class="st142" cx="2690" cy="2126" r="1287.3"/>
	<circle class="st143" cx="2698.3" cy="2126" r="1287.3"/>
	<circle class="st144" cx="2706.6" cy="2126" r="1287.3"/>
	<circle class="st145" cx="2714.9" cy="2126" r="1287.3"/>
	<circle class="st146" cx="2723.2" cy="2126" r="1287.3"/>
	<circle class="st147" cx="2731.5" cy="2126" r="1287.3"/>
	<circle class="st148" cx="2739.8" cy="2126" r="1287.3"/>
</g>
</svg>
